<?xml version="1.0" encoding="utf-8"?>
<!-- Generator: Adobe Illustrator 28.0.0, SVG Export Plug-In . SVG Version: 6.00 Build 0)  -->
<svg version="1.0" id="katman_1" xmlns="http://www.w3.org/2000/svg" xmlns:xlink="http://www.w3.org/1999/xlink" x="0px" y="0px"
	 viewBox="0 0 746.75 785.1" style="enable-background:new 0 0 746.75 785.1;" xml:space="preserve">
<style type="text/css">
	.st0{fill:#141B1F;}
</style>
<path class="st0" d="M563.54,285.01c0.16,0.55,0.44,1.22,0.85,1.99c3.03,5.81,5.98,11.68,8.84,17.59
	c6.79,14.03,12.18,28.59,16.19,43.66c14.11,53.12,6.87,110.22-18.29,158.49c-29.96,57.5-84.17,98.66-145.97,117.77
	c-24.03,7.43-47.68,11.85-71.76,17.07c-11.43,2.48-22.27,6.39-32.53,11.72c-22.76,11.83-44.16,36.13-38.91,63.94
	c2.89,15.28,16.55,27.95,32.68,20.3c0.49-0.23,0.53-0.53,0.14-0.89c-0.67-0.6-1.54-1.31-2.62-2.13
	c-12.92-9.81-12.31-29.34-2.05-40.61c4.11-4.51,9.38-7.53,15.81-9.06c17.58-4.17,34.35,6.89,41.61,23
	c13.03,28.91-3.98,59.66-31.34,71.6c-22.23,9.69-46.27,4.79-68.47-1.71c-41.3-12.1-79.5-30.58-114.59-55.43
	c-44.05-31.19-80.19-70.51-108.42-117.94c-3.47-5.83-6.65-11.69-9.54-17.57C6.1,527.56-4.25,462.54,1.55,396.88
	c0.6-6.8,1.42-13.41,2.47-19.84c9.02-55.43,30.74-108.83,65.34-153.37c0.31-0.41,0.67-0.62,1.07-0.63c0.2-0.01,0.37,0.16,0.36,0.36
	c-0.96,23.22,2.28,51.24,18.6,68.99c0.37,0.41,0.65,0.36,0.83-0.17c6.97-20.21,16.4-39.19,28.28-56.95
	c0.29-0.43,0.32-0.88,0.09-1.34c-3.1-6.43-6.26-12.96-8.83-19.5C90.96,166.77,79.41,114.18,81.6,62.74
	c0.69-16.28,7.79-23.85,24.63-21.03c12.53,2.11,25.28,6.1,38.25,11.99c40.35,18.32,75.4,46.3,106.52,77.45
	c0.21,0.21,0.46,0.26,0.74,0.15c55.01-21.1,114.43-26.04,171.59-10.86c1.9,0.51,5.15,1.64,7.77,2.29c0.34,0.09,0.63,0,0.86-0.26
	c8.58-9.56,17.3-18.98,26.17-28.26c21.08-22.05,44.24-41.62,69.49-58.71c12.05-8.16,24.01-15.05,35.87-20.67
	C580.08,6.98,599.71,0.01,618.41,0c9.4-0.01,16.91,3.65,22.52,10.96c8.81,11.49,15.21,25.4,20.03,38.98
	c16.31,45.93,22.24,98.09,14.9,146.3c-0.8,5.24-2.03,11.07-3.68,17.5c-0.23,0.87,0.11,1.94,1.02,3.21
	c2.63,3.69,5.28,7.38,7.93,11.07c25.58,35.53,43.17,74.54,54.16,116.74c8.93,34.31,13.16,70.56,10.84,105.96
	c-2.35,35.69-9.68,70.38-21.99,104.06c-16.97,46.42-45.36,89.29-80.19,124.24c-54.2,54.39-125.63,93.34-201.93,106.05
	c-0.4,0.07-0.7,0.03-0.89-0.12c-0.16-0.12-0.24-0.28-0.25-0.49c-0.02-0.34,0.12-0.6,0.42-0.77c12.12-6.94,25.3-14.19,36.1-21.25
	c66.73-43.59,115.19-111.39,141.82-185.95c19.24-53.89,27.62-109.49,22.67-165.91c-1.35-15.41-4.57-32.72-9.65-51.93
	c-6.66-25.17-17.22-50.29-32.49-71.46c-0.41-0.56-0.94-0.73-1.59-0.5c-11.78,4.07-22.83,2.7-34.03-2.2
	C563.56,284.24,563.36,284.41,563.54,285.01z M480.46,131.26c-17.42,37.61,12.84,80.51,53.18,81.69c0.83,0.03,1.07-0.34,0.74-1.1
	c-11.38-26.04-4.29-58.6,5.82-83.86c12.04-30.07,30.55-58.23,52.89-81.84c5.29-5.59,10.26-10.76,14.92-15.53
	c1.53-1.55,1.23-2.05-0.88-1.5c-7.52,1.98-15.26,4.12-22.34,7.2c-36.41,15.81-68.71,44.2-92.49,75.62
	C487.65,118.07,483.5,124.71,480.46,131.26z M628.11,171.56c-3.14,29.83-12,61.57-30.36,85.83c-0.44,0.59-0.31,1.43,0.3,1.85
	c5.38,3.67,12.49,7.16,18.24,2.11c6.72-5.9,11.44-13.97,15.29-21.94c14.66-30.33,19.59-61.65,18.38-95.16
	c-1.35-37.59-8.64-77.35-27.4-110c-0.67-1.16-0.96-1.07-0.86,0.26c1.67,22.09,4.77,44.16,6.82,66.23
	C630.72,124.4,630.58,148.01,628.11,171.56z M193.8,154.47c-10.12-22.04-23.35-41.18-39.69-57.41
	c-11.95-11.88-25.78-22.03-41.62-25.65c-0.65-0.15-0.76,0.04-0.33,0.55c5.26,6.33,10.29,12.96,15.09,19.91
	c16.97,24.57,26.85,51.78,29.62,81.61c0.41,4.48,0.56,8.82,0.44,13.01c-0.02,0.6,0.18,0.68,0.6,0.25
	c10.93-11.31,22.76-21.57,35.5-30.79C193.88,155.61,194.04,154.99,193.8,154.47z M506.99,465.27
	c-14.5-21.65-38.67-36.56-62.54-44.86c-19.75-6.87-40.09-10.02-61.02-9.43c-5.51,0.15-11.01,0.41-16.5,0.77
	c-3.96,0.25-7.71-3.03-8.36-6.98c-0.61-3.7,1.04-6.35,4.94-7.96c9.08-3.73,17.12-8.26,24.11-13.59c23.92-18.23,40.1-48.34,35.25-79
	c-3.01-19.01-14.37-35.36-31.24-44.68c-23.68-13.09-53.16-10.88-76.38,2.53c-1.84,1.06-4.94,3.16-9.3,6.29
	c-12.87,9.26-15.75-4.4-15.81-13.87c-0.09-17.83,5.29-35.69,13.92-51.17c16.58-29.76,41.24-51.48,72.07-65.84
	c0.39-0.18,0.42-0.42,0.11-0.71c-0.2-0.19-0.55-0.29-1.06-0.32c-52.46-3.17-101.35,36.34-124.81,80.28
	c-13.81,25.86-18.72,58.86-7.49,86.29c1.51,3.69,0.5,6.22-3.03,7.59c-6.56,2.56-15.13-6.83-18.91-11.37
	c-32.63-39.11-26.56-89.93-4.89-131.57c0.11-0.21,0.15-0.34,0.13-0.4c-0.08-0.24-0.36-0.35-0.58-0.22
	c-6.55,3.9-12.71,8.28-18.48,13.14c-34.05,28.68-61.7,64.72-79.54,105.48c-16.64,38.05-22.91,81.03-19.16,121.56
	c3.05,32.91,12.8,63.64,29.26,92.19c7.92,13.73,31.55,48.58,50.73,41.24c17.75-6.78,14.25-35.58,11.13-49.54
	c-2.33-10.43-7.14-19.54-14.42-27.33c-4.03-4.31-8.08-8.58-12.14-12.83c-3.87-4.05-5.22-8.47-4.03-13.25
	c1.78-7.18,7.96-10.31,14.96-7.69c4.17,1.56,8.34,3.11,12.51,4.66c11.99,4.46,25.36,1.23,37.3-3.52c7.03-2.8,13.63-3.24,17.4,3.64
	c3.94,7.17-0.29,13.9-5.63,18.76c-6.41,5.84-12.56,11.22-17.73,18.27c-8.2,11.15-6.5,27.15-0.28,38.88
	c14.16,26.7,43.06,35.87,71.21,27.35c6.31-1.91,14.22-6.53,19.43-0.27c5.65,6.8,0.19,13.08-6.02,16.08
	c-32.91,15.91-67.63,9.6-92.86-16.55c-0.2-0.2-0.34-0.16-0.41,0.11c-3.24,12.16-14,21.77-25.71,25.37
	c-0.19,0.06-0.27,0.29-0.14,0.45c7.33,9.26,17.13,16.98,26.75,23.7c17.29,12.06,40.5,17.65,63.2,18.06
	c46.71,0.86,94.74-7.78,138.04-25.46c59.34-24.23,111.12-71.01,128.67-134.3c0.42-1.51,0.74-2.82,0.96-3.95
	c0.09-0.47-0.03-0.53-0.36-0.2c-9.43,9.5-19.9,17.98-31.69,24.54C508.01,465.94,507.33,465.78,506.99,465.27z M87.78,475.95
	c-21.19,5.63-41.35,13.94-60.07,25.31c-10.67,6.48-2.56,20.26,7.26,14.29c19.17-11.66,38.3-19.55,58.81-25.75
	c0.65-0.2,0.98-0.93,0.69-1.55l-5.56-11.78C88.71,476.05,88.23,475.83,87.78,475.95z M67.98,542.54
	c12.04-8.85,27.16-15.15,42.58-21.93c0.29-0.12,0.4-0.47,0.24-0.73l-6.9-11.47c-0.3-0.5-0.9-0.72-1.44-0.53
	c-23.81,7.96-44.56,20.5-62.27,37.63c-4.6,4.45-4.33,14.57,3.22,15.23c5.67,0.5,8.8-3.88,12.69-8.33
	C57.95,550.29,61.91,547,67.98,542.54z M115.02,556.63c7.25-4.21,13.28-7.36,17.41-8.94c0.31-0.12,0.37-0.32,0.18-0.59l-8.07-11.26
	c-0.12-0.17-0.33-0.24-0.52-0.16c-19.98,7.8-39.31,20.16-53.73,36.17c-3.52,3.91-6.99,7.85-10.42,11.84
	c-3.89,4.52-6.56,8.94-3.83,13.81c2.79,4.96,9.49,4.92,12.78,0.4C81.94,579.8,96.2,567.55,115.02,556.63z"/>
<path class="st0" d="M301.66,368.35c-0.14,5.13,0.58,13.61-1.05,17.95c-2.81,7.49-14.02,8.41-16.86,0.36
	c-0.75-2.11-1.08-4.92-1-8.43c0.19-8.68,0.01-18.52,1.01-26.31c3.23-25.19,16.44-51.41,37.49-66.35
	c19.05-13.53,45.45-17.61,63.86-0.52c12.35,11.47,16.86,25.54,13.51,42.2c-5.15,25.64-28.73,43.06-54.21,45.22
	c-13.5,1.15-28.28-2.19-41.9-4.8C301.96,367.56,301.68,367.79,301.66,368.35z M361.81,303.07c3.69-2.29,4.8-7.18,2.47-10.93
	c-2.33-3.75-7.2-4.94-10.89-2.65c-3.69,2.29-4.8,7.18-2.47,10.93C353.25,304.17,358.12,305.36,361.81,303.07z"/>
<path class="st0" d="M165.88,372.97c-30.09-8.15-41.45-39.16-29.49-66.82c0.17-0.4-0.06-0.87-0.48-0.97
	c-3.86-0.91-6.22-3.1-7.09-6.55c-2.77-11.07,9.91-12,17.08-10.24c33.81,8.31,42.57,40.14,41,71.1c-0.66,13.09-1.15,21.43-1.47,25
	c-0.75,8.29-11.36,13.67-16.73,5.96c-2.91-4.16-1.86-11.8-2.27-16.82C166.4,373.28,166.22,373.06,165.88,372.97z"/>
<path class="st0" d="M405.06,467.23c-24.89-10.24-48.22-9.45-74.1-3.95c-3.04,0.65-5.24,0.81-6.61,0.5
	c-6.63-1.52-7.33-10.51-2.23-14.56c0.99-0.79,3.05-1.54,6.2-2.23c28.36-6.28,56.33-5.96,83.62,4.45c2.71,1.04,6.29,3.74,7.37,6.53
	c2.07,5.36-1.58,11.21-7.39,11.04C410.1,468.96,407.81,468.36,405.06,467.23z"/>
<path class="st0" d="M405.73,481.41c4.47,1.53,9.53,3.72,10.85,8.4c1.21,4.31-1.67,8.62-5.92,9.64c-1.95,0.47-4.17,0.19-6.65-0.86
	c-19.77-8.32-40.14-10.66-61.09-7.03c-3.94,0.68-13.53,3.7-18.05,2.24c-6.64-2.12-6.94-12.86,0.8-14.99
	C352.5,471.43,379.19,472.3,405.73,481.41z"/>
<path class="st0" d="M393.8,526.97c-21.44-8.41-42.04-7.97-64.17-2.65c-10.9,2.62-15.32-12.76-3.45-15.7
	c25.6-6.34,48.84-6.23,74.24,2.84c4.44,1.58,9.04,2.99,11.35,6.97c2.46,4.22,0.37,9.56-3.93,11.47
	C403.6,531.78,397.92,528.58,393.8,526.97z"/>
</svg>
